<mxfile host="app.diagrams.net" modified="2024-01-10T11:50:48.399Z" agent="Mozilla/5.0 (Windows NT 10.0; Win64; x64) AppleWebKit/537.36 (KHTML, like Gecko) Chrome/120.0.0.0 Safari/537.36" etag="a2Jnxtc5SN91IcsM5gux" version="22.1.18" type="device">
  <diagram name="Page-1" id="2YBvvXClWsGukQMizWep">
    <mxGraphModel dx="794" dy="412" grid="1" gridSize="10" guides="1" tooltips="1" connect="1" arrows="1" fold="1" page="1" pageScale="1" pageWidth="850" pageHeight="1100" math="0" shadow="0">
      <root>
        <mxCell id="0" />
        <mxCell id="1" parent="0" />
        <mxCell id="ib4OcxvmjajZ3cBQxInU-1" value="&lt;br&gt;&lt;h1&gt;&lt;span style=&quot;color: rgb(255, 255, 255); font-family: &amp;quot;SÃ¶hne Mono&amp;quot;, Monaco, &amp;quot;Andale Mono&amp;quot;, &amp;quot;Ubuntu Mono&amp;quot;, monospace; font-size: 14px; font-style: normal; font-variant-ligatures: normal; font-variant-caps: normal; letter-spacing: normal; orphans: 2; text-align: left; text-indent: 0px; text-transform: none; widows: 2; word-spacing: 0px; -webkit-text-stroke-width: 0px; background-color: rgb(0, 0, 0); text-decoration-thickness: initial; text-decoration-style: initial; text-decoration-color: initial; float: none; display: inline !important;&quot;&gt;&lt;b&gt;User&#39;s Request&amp;nbsp;&lt;/b&gt;&lt;/span&gt;&lt;/h1&gt;&lt;br class=&quot;Apple-interchange-newline&quot;&gt;" style="rounded=0;whiteSpace=wrap;html=1;fillColor=#ffe6cc;strokeColor=#d79b00;" vertex="1" parent="1">
          <mxGeometry x="285" y="40" width="190" height="60" as="geometry" />
        </mxCell>
        <mxCell id="ib4OcxvmjajZ3cBQxInU-2" value="&lt;h2 style=&quot;line-height: 0%;&quot;&gt;internsctl Script&lt;br&gt;&lt;br&gt;&lt;/h2&gt;&lt;h2 style=&quot;line-height: 0%;&quot;&gt;&lt;br&gt;&lt;/h2&gt;&lt;h2 style=&quot;line-height: 0%;&quot;&gt;&amp;nbsp;(Option Parsing)&lt;/h2&gt;" style="rounded=0;whiteSpace=wrap;html=1;horizontal=1;fillColor=#dae8fc;strokeColor=#6c8ebf;" vertex="1" parent="1">
          <mxGeometry x="230" y="150" width="300" height="60" as="geometry" />
        </mxCell>
        <mxCell id="ib4OcxvmjajZ3cBQxInU-3" value="&lt;b&gt;Execute Command&amp;nbsp;&lt;br&gt;(Perform Actions) &lt;/b&gt;" style="rounded=0;whiteSpace=wrap;html=1;fillColor=#d5e8d4;strokeColor=#82b366;" vertex="1" parent="1">
          <mxGeometry x="315" y="270" width="120" height="60" as="geometry" />
        </mxCell>
        <mxCell id="ib4OcxvmjajZ3cBQxInU-4" value="&lt;b&gt; Output Results&lt;/b&gt;" style="rounded=0;whiteSpace=wrap;html=1;fillColor=#fff2cc;strokeColor=#d6b656;" vertex="1" parent="1">
          <mxGeometry x="320" y="390" width="120" height="60" as="geometry" />
        </mxCell>
        <mxCell id="ib4OcxvmjajZ3cBQxInU-6" value="" style="endArrow=classic;html=1;rounded=0;strokeWidth=3;" edge="1" parent="1" source="ib4OcxvmjajZ3cBQxInU-1">
          <mxGeometry width="50" height="50" relative="1" as="geometry">
            <mxPoint x="330" y="230" as="sourcePoint" />
            <mxPoint x="380" y="150" as="targetPoint" />
          </mxGeometry>
        </mxCell>
        <mxCell id="ib4OcxvmjajZ3cBQxInU-7" value="" style="endArrow=classic;html=1;rounded=0;entryX=0.5;entryY=0;entryDx=0;entryDy=0;strokeWidth=3;" edge="1" parent="1" target="ib4OcxvmjajZ3cBQxInU-3">
          <mxGeometry width="50" height="50" relative="1" as="geometry">
            <mxPoint x="373.5" y="210" as="sourcePoint" />
            <mxPoint x="376.5" y="260" as="targetPoint" />
          </mxGeometry>
        </mxCell>
        <mxCell id="ib4OcxvmjajZ3cBQxInU-8" value="" style="endArrow=classic;html=1;rounded=0;entryX=0.5;entryY=0;entryDx=0;entryDy=0;strokeWidth=3;" edge="1" parent="1" target="ib4OcxvmjajZ3cBQxInU-4">
          <mxGeometry width="50" height="50" relative="1" as="geometry">
            <mxPoint x="378.5" y="330" as="sourcePoint" />
            <mxPoint x="381.5" y="380" as="targetPoint" />
          </mxGeometry>
        </mxCell>
        <mxCell id="ib4OcxvmjajZ3cBQxInU-9" value="Created by: Nikhil Kumar Mishra" style="text;html=1;strokeColor=none;fillColor=none;align=center;verticalAlign=middle;whiteSpace=wrap;rounded=0;" vertex="1" parent="1">
          <mxGeometry x="20" y="240" width="170" height="30" as="geometry" />
        </mxCell>
      </root>
    </mxGraphModel>
  </diagram>
</mxfile>
